HIERARCHY
ROOT Hips
{
	OFFSET	0.00	0.00	0.00
	CHANNELS 6 Xposition Yposition Zposition Zrotation Xrotation Yrotation
	JOINT LeftUpLeg
	{
		OFFSET	 0.126116	-0.014019	-0.065224
		CHANNELS 3 Zrotation Xrotation Yrotation
		JOINT LeftLeg
		{
			OFFSET	 0.000000	 0.000000	 0.569914
			CHANNELS 3 Zrotation Xrotation Yrotation
			JOINT LeftFoot
			{
				OFFSET	 0.000000	 0.000000	 0.544423
				CHANNELS 3 Zrotation Xrotation Yrotation
				JOINT LeftToeBase
				{
					OFFSET	 0.000000	 0.000000	 0.207117
					CHANNELS 3 Zrotation Xrotation Yrotation
					End Site
					{
						OFFSET	 0.000000	 0.000000	 0.207117
					}
				}
			}
		}
	}
	JOINT RightUpLeg
	{
		OFFSET	-0.124023	-0.008373	-0.065224
		CHANNELS 3 Zrotation Xrotation Yrotation
		JOINT RightLeg
		{
			OFFSET	 0.000000	 0.000000	 0.570047
			CHANNELS 3 Zrotation Xrotation Yrotation
			JOINT RightFoot
			{
				OFFSET	 0.000000	 0.000000	 0.544354
				CHANNELS 3 Zrotation Xrotation Yrotation
				JOINT RightToeBase
				{
					OFFSET	 0.000000	 0.000000	 0.207540
					CHANNELS 3 Zrotation Xrotation Yrotation
					End Site
					{
						OFFSET	 0.000000	 0.000000	 0.207540
					}
				}
			}
		}
	}
	JOINT Spine
	{
		OFFSET	 0.000184	-0.007763	 0.117403
		CHANNELS 3 Zrotation Xrotation Yrotation
		JOINT Spine1
		{
			OFFSET	 0.000000	 0.000000	 0.137269
			CHANNELS 3 Zrotation Xrotation Yrotation
			JOINT Spine2
			{
				OFFSET	 0.000000	 0.000000	 0.156879
				CHANNELS 3 Zrotation Xrotation Yrotation
				JOINT LeftShoulder
				{
					OFFSET	 0.080501	-0.002496	 0.160144
					CHANNELS 3 Zrotation Xrotation Yrotation
					JOINT LeftArm
					{
						OFFSET	 0.000000	 0.000000	 0.164363
						CHANNELS 3 Zrotation Xrotation Yrotation
						JOINT LeftForeArm
						{
							OFFSET	 0.000000	 0.000000	 0.364576
							CHANNELS 3 Zrotation Xrotation Yrotation
							JOINT LeftHand
							{
								OFFSET	 0.000000	 0.000000	 0.360812
								CHANNELS 3 Zrotation Xrotation Yrotation
								JOINT LeftHandIndex1
								{
									OFFSET	 0.000000	 0.000000	 0.086006
									CHANNELS 3 Zrotation Xrotation Yrotation
									JOINT LeftHandIndex2
									{
										OFFSET	 0.000000	 0.000000	 0.047236
										CHANNELS 3 Zrotation Xrotation Yrotation
										JOINT LeftHandIndex3
										{
											OFFSET	-0.004284	-0.000551	 0.038166
											CHANNELS 3 Zrotation Xrotation Yrotation
											End Site
											{
												OFFSET	-0.004284	-0.000551	 0.038166
											}
										}
									}
								}
							}
						}
					}
				}
				JOINT Neck
				{
					OFFSET	 0.000000	 0.000000	 0.176489
					CHANNELS 3 Zrotation Xrotation Yrotation
					JOINT Head
					{
						OFFSET	 0.000000	-0.001747	 0.077940
						CHANNELS 3 Zrotation Xrotation Yrotation
						End Site
						{
							OFFSET	 0.000000	-0.001747	 0.077940
						}
					}
				}
				JOINT RightShoulder
				{
					OFFSET	-0.080363	 0.000306	 0.159706
					CHANNELS 3 Zrotation Xrotation Yrotation
					JOINT RightArm
					{
						OFFSET	 0.000000	 0.000000	 0.164196
						CHANNELS 3 Zrotation Xrotation Yrotation
						JOINT RightForeArm
						{
							OFFSET	 0.000000	 0.000000	 0.365611
							CHANNELS 3 Zrotation Xrotation Yrotation
							JOINT RightHand
							{
								OFFSET	 0.000000	 0.000000	 0.360648
								CHANNELS 3 Zrotation Xrotation Yrotation
								JOINT RightHandIndex1
								{
									OFFSET	 0.000000	 0.000000	 0.069977
									CHANNELS 3 Zrotation Xrotation Yrotation
									JOINT RightHandIndex2
									{
										OFFSET	 0.000000	 0.000000	 0.052305
										CHANNELS 3 Zrotation Xrotation Yrotation
										JOINT RightHandIndex3
										{
											OFFSET	 0.009002	-0.000782	 0.042196
											CHANNELS 3 Zrotation Xrotation Yrotation
											End Site
											{
												OFFSET	 0.009002	-0.000782	 0.042196
											}
										}
									}
								}
							}
						}
					}
				}
			}
		}
	}
}
MOTION
Frames:    5
Frame Time: 0.03333334
 7.031213	 0.037204	 0.851779	-178.729600	 0.683565	 3.694317	 5.044097	-4.049041	 176.490300	-11.194050	-33.828930	-5.145181	 171.968900	 86.494630	 179.416800	-2.377090	 30.252120	-0.039383	 1.761874	-12.696050	 178.982700	 3.671591	-47.692220	 5.739028	-175.513400	 82.005450	-178.541400	 2.403660	 22.150210	-0.130076	-0.853278	 0.511075	-1.866398	-0.396878	-2.355373	-0.203723	-0.064945	-4.457192	-0.006804	-91.809810	 77.603850	 179.137000	 36.691170	 69.867680	-39.686020	-8.003781	-4.014498	-20.034580	 4.864183	-12.844710	-5.468937	-3.812334	 37.924440	-2.927599	-2.450526	 36.184240	 0.754587	-1.378229	 35.397820	-2.634230	 0.497043	 6.035625	-3.209213	 0.260611	-13.354860	-1.594965	 89.765110	 79.270420	-179.643600	-36.361910	 70.375650	 39.087140	 4.251024	-7.800032	 30.560350	-9.510184	-13.721010	 9.865588	 6.437017	 35.671460	-0.771858	 2.830251	 35.756010	-7.813440	-2.350882	 35.473990	 5.254307
 7.029212	 0.025241	 0.851022	-178.477100	 0.784151	 3.739795	 5.007063	-4.311508	 176.535100	-10.999240	-34.186730	-5.104941	 171.959400	 86.168760	 179.578400	-2.375748	 30.503260	-0.044959	 1.861136	-12.889490	 178.969300	 3.872103	-48.146370	 6.009777	-176.063400	 81.570820	-177.856900	 2.403527	 22.222930	-0.128608	-0.854748	 0.531339	-1.929167	-0.410436	-2.359800	-0.253807	-0.113401	-4.465189	-0.011888	-91.808540	 77.611380	 179.162000	 36.587750	 69.771720	-39.613880	-8.100367	-4.041821	-20.528260	 4.737992	-12.857910	-5.472409	-3.812334	 37.924440	-2.927599	-2.450526	 36.184240	 0.754587	-1.378229	 35.397820	-2.634230	 0.468964	 5.737906	-3.475406	 0.242505	-13.073570	-1.318092	 89.764340	 79.261310	-179.622500	-36.261150	 70.478820	 39.059830	 4.254510	-7.732543	 30.053210	-9.582557	-13.746330	 9.864959	 6.437017	 35.671460	-0.771858	 2.830251	 35.756010	-7.813440	-2.350882	 35.473990	 5.254307
 7.024728	 0.024053	 0.849938	-178.515400	 0.835076	 3.645956	 5.115680	-4.639241	 176.730100	-10.801190	-34.685680	-4.979268	 172.308000	 85.753880	 179.542200	-2.374355	 30.756130	-0.050607	 2.125267	-13.792030	 179.093000	 4.365843	-49.914760	 6.799014	-176.270800	 81.153630	-177.362500	 2.401442	 23.273380	-0.107284	-0.873498	 0.836755	-1.766221	-0.559866	-2.423856	-0.306082	-0.351530	-4.552738	-0.037120	-91.801350	 77.756560	 179.230900	 36.638480	 69.521040	-39.987560	-8.192593	-4.038970	-20.927550	 4.568726	-12.897990	-5.477078	-3.812334	 37.924440	-2.927599	-2.450526	 36.184240	 0.754587	-1.378229	 35.397820	-2.634230	 0.197938	 5.585246	-3.253161	-0.021753	-13.107030	-1.745153	 89.767030	 79.108790	-179.624100	-36.431380	 70.573740	 39.595520	 4.207562	-7.709661	 29.471600	-9.770637	-13.802850	 9.864614	 6.437017	 35.671460	-0.771858	 2.830251	 35.756010	-7.813440	-2.350882	 35.473990	 5.254307
 7.018993	 0.024567	 0.848705	-178.826400	 0.868759	 3.198615	 5.658400	-4.791519	 177.233700	-10.946430	-34.982770	-4.729537	 174.251300	 85.462960	 178.063600	-2.372913	 31.013740	-0.056369	 2.285940	-15.961160	 179.707100	 5.221894	-53.653320	 8.116586	-176.071300	 81.367490	-177.400200	 2.392570	 26.393510	-0.042614	-0.830601	 1.448419	-1.213135	-0.695622	-2.523069	-0.236526	-0.526462	-4.748209	-0.056484	-91.792090	 77.991680	 179.307200	 36.809120	 69.165120	-40.811460	-8.252348	-4.005679	-21.009320	 4.439529	-12.966380	-5.480479	-3.812334	 37.924440	-2.927599	-2.450526	 36.184240	 0.754587	-1.378229	 35.397820	-2.634230	 0.007525	 5.427222	-3.183194	-0.185858	-13.353130	-2.026508	 89.773140	 78.860440	-179.687300	-36.759570	 70.635110	 40.390990	 4.240956	-7.664101	 29.015030	-9.864408	-13.878190	 9.865673	 6.437017	 35.671460	-0.771858	 2.830251	 35.756010	-7.813440	-2.350882	 35.473990	 5.254307
 7.012255	 0.025243	 0.846897	-179.420500	 0.912590	 2.396191	 6.420709	-4.617576	 178.145000	-11.418020	-34.896500	-4.430567	 175.892100	 85.361010	 176.847900	-2.370785	 31.380610	-0.064629	 2.588925	-19.948850	-179.224900	 7.365299	-59.981470	 11.022560	-174.688300	 83.177090	-178.543100	 2.360633	 32.752400	 0.097487	-0.672137	 2.110838	-0.297717	-0.739015	-2.573317	-0.009352	-0.595239	-5.007269	-0.065198	-91.782980	 78.281680	 179.357800	 36.924680	 68.722530	-41.851610	-8.268080	-3.960227	-20.791730	 4.388382	-13.064980	-5.481119	-3.812334	 37.924440	-2.927599	-2.450526	 36.184240	 0.754587	-1.378229	 35.397820	-2.634230	-0.031980	 5.319975	-3.310092	-0.228385	-13.788580	-2.153982	 89.777790	 78.561910	-179.719400	-37.249180	 70.655330	 41.350890	 4.289515	-7.627909	 28.744810	-9.894453	-13.970340	 9.869306	 6.437017	 35.671460	-0.771858	 2.830251	 35.756010	-7.813440	-2.350882	 35.473990	 5.254307
